M48
; DRILL file {KiCad 7.0.7} date Mon Oct 23 16:54:04 2023
; FORMAT={-:-/ absolute / inch / decimal}
; #@! TF.CreationDate,2023-10-23T16:54:04+02:00
; #@! TF.GenerationSoftware,Kicad,Pcbnew,7.0.7
; #@! TF.FileFunction,Plated,1,2,PTH
FMAT,2
INCH
; #@! TA.AperFunction,Plated,PTH,ComponentDrill
T1C0.0276
; #@! TA.AperFunction,Plated,PTH,ComponentDrill
T2C0.0295
; #@! TA.AperFunction,Plated,PTH,ViaDrill
T3C0.0315
; #@! TA.AperFunction,Plated,PTH,ComponentDrill
T4C0.0315
; #@! TA.AperFunction,Plated,PTH,ComponentDrill
T5C0.0354
; #@! TA.AperFunction,Plated,PTH,ComponentDrill
T6C0.0394
; #@! TA.AperFunction,Plated,PTH,ComponentDrill
T7C0.0433
; #@! TA.AperFunction,Plated,PTH,ComponentDrill
T8C0.0504
; #@! TA.AperFunction,Plated,PTH,ViaDrill
T9C0.1378
%
G90
G05
T1
X4.075Y-3.2719
X4.075Y-3.3703
T2
X3.375Y-3.475
X3.375Y-3.525
X3.375Y-3.575
T3
X3.025Y-3.675
X3.6Y-3.575
X3.95Y-3.675
X4.075Y-3.575
T4
X1.9506Y-3.075
X1.9512Y-3.325
X2.3506Y-3.075
X2.3512Y-3.325
X2.4Y-2.4494
X2.4Y-2.8494
X2.5994Y-3.475
X2.5994Y-3.575
X2.5994Y-3.675
X2.6004Y-3.0506
X2.6004Y-3.1506
X2.6004Y-3.2506
X2.6494Y-2.325
X2.6504Y-2.6006
X2.6504Y-2.7006
X2.6504Y-2.8006
X2.8994Y-3.475
X2.8994Y-3.575
X2.8994Y-3.675
X2.9004Y-3.0506
X2.9004Y-3.1506
X2.9004Y-3.2506
X2.9504Y-2.6006
X2.9504Y-2.7006
X2.9504Y-2.8006
X3.0494Y-2.325
X3.125Y-2.9756
X3.125Y-3.3756
X3.7516Y-3.475
X3.8Y-2.275
X3.8Y-2.675
X3.8Y-2.825
X3.8Y-3.125
X3.85Y-3.475
X3.975Y-2.275
X3.975Y-2.675
X3.975Y-2.825
X3.975Y-3.125
X4.35Y-3.1
X4.35Y-3.4
T5
X3.6Y-3.0
X3.6Y-3.1
T6
X1.725Y-2.925
X1.725Y-3.025
X1.725Y-3.35
X1.725Y-3.45
T7
X1.9191Y-2.65
X1.9191Y-2.8272
X2.175Y-2.65
X2.175Y-2.8272
T8
X3.3624Y-2.9309
X3.3624Y-3.025
X3.3624Y-3.1191
T9
X1.775Y-2.3
X1.775Y-3.7
X4.375Y-2.3
X4.375Y-3.675
T6
G00X3.311Y-2.6541
M15
G01X3.311Y-2.5675
M16
G05
G00X3.5433Y-2.477
M15
G01X3.4567Y-2.477
M16
G05
G00X3.5512Y-2.725
M15
G01X3.4488Y-2.725
M16
G05
T0
M30
