M48
; DRILL file {KiCad 7.0.7} date Sun Oct 22 22:24:15 2023
; FORMAT={-:-/ absolute / inch / decimal}
; #@! TF.CreationDate,2023-10-22T22:24:15+02:00
; #@! TF.GenerationSoftware,Kicad,Pcbnew,7.0.7
; #@! TF.FileFunction,Plated,1,2,PTH
FMAT,2
INCH
; #@! TA.AperFunction,Plated,PTH,ComponentDrill
T1C0.0295
; #@! TA.AperFunction,Plated,PTH,ComponentDrill
T2C0.0315
; #@! TA.AperFunction,Plated,PTH,ComponentDrill
T3C0.0354
; #@! TA.AperFunction,Plated,PTH,ComponentDrill
T4C0.0394
; #@! TA.AperFunction,Plated,PTH,ComponentDrill
T5C0.0433
; #@! TA.AperFunction,Plated,PTH,ComponentDrill
T6C0.0472
; #@! TA.AperFunction,Plated,PTH,ComponentDrill
T7C0.0591
%
G90
G05
T1
X3.55Y-3.625
X3.6Y-3.625
X3.65Y-3.625
T2
X2.475Y-2.7
X2.475Y-2.8
X2.475Y-2.9
X2.475Y-4.0
X2.475Y-4.1
X2.475Y-4.2
X2.5Y-3.3506
X2.5Y-3.4506
X2.5Y-3.5506
X2.775Y-2.7
X2.775Y-2.8
X2.775Y-2.9
X2.775Y-4.0
X2.775Y-4.1
X2.775Y-4.2
X2.8Y-3.3506
X2.8Y-3.4506
X2.8Y-3.5506
X2.9797Y-3.675
X3.0Y-3.975
X3.0Y-4.275
X3.275Y-3.675
X3.65Y-3.0748
X3.65Y-3.3748
X3.9Y-4.325
X3.9754Y-4.0
X4.125Y-4.0
X4.2Y-4.325
T3
X3.425Y-3.15
X3.425Y-3.25
T4
X2.125Y-2.95
X2.125Y-3.05
X2.125Y-3.375
X2.125Y-3.475
X2.125Y-3.8
X2.125Y-3.9
T5
X3.375Y-2.7
X3.375Y-2.8
X3.375Y-2.9
T6
X4.025Y-2.5317
X4.025Y-2.9317
X4.025Y-3.175
X4.025Y-3.575
X4.425Y-2.5317
X4.425Y-2.9317
X4.425Y-3.175
X4.425Y-3.575
T7
X2.3756Y-3.125
X2.3762Y-3.8
X2.5512Y-2.5
X2.8244Y-3.125
X2.825Y-3.8
X2.9756Y-3.45
X3.0Y-2.5
X3.05Y-2.725
X3.05Y-3.1738
X3.225Y-3.8506
X3.225Y-4.2994
X3.4244Y-3.45
T4
G00X3.5348Y-3.9358
M15
G01X3.6372Y-3.9358
M16
G05
G00X3.5427Y-4.1839
M15
G01X3.6293Y-4.1839
M16
G05
G00X3.775Y-4.0067
M15
G01X3.775Y-4.0933
M16
G05
T0
M30
